<?xml version="1.0" standalone="no"?>
<!DOCTYPE svg PUBLIC "-//W3C//DTD SVG 20010904//EN"
 "http://www.w3.org/TR/2001/REC-SVG-20010904/DTD/svg10.dtd">
<svg version="1.0" xmlns="http://www.w3.org/2000/svg"
 width="200.000000pt" height="200.000000pt" viewBox="0 0 200.000000 200.000000"
 preserveAspectRatio="xMidYMid meet">
<metadata>
Created by potrace 1.14, written by Peter Selinger 2001-2017
</metadata>
<g transform="translate(0.000000,200.000000) scale(0.100000,-0.100000)"
fill="#000000" stroke="none">
<path d="M0 1000 l0 -1000 1000 0 1000 0 0 1000 0 1000 -1000 0 -1000 0 0
-1000z m1403 635 c31 -10 57 -22 57 -26 0 -11 6 -12 -86 12 -112 29 -285 29
-374 1 -229 -74 -343 -261 -357 -587 -6 -153 11 -268 58 -382 61 -144 127
-211 266 -266 73 -28 87 -30 203 -30 109 1 185 10 318 38 20 5 32 4 32 -3 0
-41 -407 -68 -562 -38 -184 37 -336 142 -403 280 -52 106 -67 174 -72 332 -4
113 -2 158 12 220 55 249 195 389 454 454 100 26 363 22 454 -5z m32 -200
c108 -32 162 -112 152 -221 -11 -112 -73 -198 -159 -219 -16 -4 -28 -11 -28
-17 0 -5 56 -103 125 -219 69 -115 125 -212 125 -214 0 -3 -26 -5 -58 -5 l-57
0 -130 218 -130 217 -82 3 -83 3 0 -221 0 -220 -55 0 -55 0 0 455 0 454 98 4
c140 6 285 -2 337 -18z"/>
<path d="M1118 1434 c-5 -4 -8 -106 -8 -226 l0 -218 115 0 c130 0 167 10 208
59 34 41 47 89 47 180 0 91 -23 145 -77 181 -33 23 -48 25 -157 28 -67 2 -124
0 -128 -4z"/>
</g>
</svg>
